ffmpeg started on 2016-12-06 at 02:44:56
Report written to "Output/x264/results/ffmpeg/sintelfast2500k.log"
Command line:
Tools/ffmpeg/ffmpeg -benchmark -y -i Input/y4m/sintel.y4m -c:v libx264 -preset fast -b:v 2500k -an Output/x264/encoded/sintelfast2500k.mkv
ffmpeg version N-82227-gdb23fde Copyright (c) 2000-2016 the FFmpeg developers
  built with gcc 5.4.0 (Ubuntu 5.4.0-6ubuntu1~16.04.2) 20160609
  configuration: --prefix=/home/jaroslav/ffmpeg_build --pkg-config-flags=--static --extra-cflags=-I/home/jaroslav/ffmpeg_build/include --extra-ldflags=-L/home/jaroslav/ffmpeg_build/lib --bindir=/home/jaroslav/bin --enable-gpl --enable-libass --enable-libfdk-aac --enable-libfreetype --enable-libmp3lame --enable-libopus --enable-libtheora --enable-libvorbis --enable-libvpx --enable-libx264 --enable-libx265 --enable-nvenc --enable-libmfx --enable-libxvid --enable-libgsm --enable-libopencore-amrnb --enable-version3 --enable-nonfree
  libavutil      55. 35.100 / 55. 35.100
  libavcodec     57. 66.101 / 57. 66.101
  libavformat    57. 57.100 / 57. 57.100
  libavdevice    57.  2.100 / 57.  2.100
  libavfilter     6. 66.100 /  6. 66.100
  libswscale      4.  3.100 /  4.  3.100
  libswresample   2.  4.100 /  2.  4.100
  libpostproc    54.  2.100 / 54.  2.100
Input #0, yuv4mpegpipe, from 'Input/y4m/sintel.y4m':
  Duration: 00:00:20.83, start: 0.000000, bitrate: 2057307 kb/s
    Stream #0:0: Video: rawvideo (I420 / 0x30323449), yuv420p(progressive), 4096x1744, SAR 1:1 DAR 256:109, 24 fps, 24 tbr, 24 tbn, 24 tbc
[libx264 @ 0x305e120] using SAR=1/1
[libx264 @ 0x305e120] using cpu capabilities: MMX2 SSE2Fast SSSE3 SSE4.2 AVX FMA3 AVX2 LZCNT BMI2
[libx264 @ 0x305e120] profile High, level 5.1
[libx264 @ 0x305e120] 264 - core 148 - H.264/MPEG-4 AVC codec - Copyleft 2003-2016 - http://www.videolan.org/x264.html - options: cabac=1 ref=2 deblock=1:0:0 analyse=0x3:0x113 me=hex subme=6 psy=1 psy_rd=1.00:0.00 mixed_ref=1 me_range=16 chroma_me=1 trellis=1 8x8dct=1 cqm=0 deadzone=21,11 fast_pskip=1 chroma_qp_offset=-2 threads=6 lookahead_threads=1 sliced_threads=0 nr=0 decimate=1 interlaced=0 bluray_compat=0 constrained_intra=0 bframes=3 b_pyramid=2 b_adapt=1 b_bias=0 direct=1 weightb=1 open_gop=0 weightp=1 keyint=250 keyint_min=24 scenecut=40 intra_refresh=0 rc_lookahead=30 rc=abr mbtree=1 bitrate=2500 ratetol=1.0 qcomp=0.60 qpmin=0 qpmax=69 qpstep=4 ip_ratio=1.40 aq=1:1.00
Output #0, matroska, to 'Output/x264/encoded/sintelfast2500k.mkv':
  Metadata:
    encoder         : Lavf57.57.100
    Stream #0:0: Video: h264 (libx264) (H264 / 0x34363248), yuv420p, 4096x1744 [SAR 1:1 DAR 256:109], q=-1--1, 2500 kb/s, 24 fps, 1k tbn, 24 tbc
    Metadata:
      encoder         : Lavc57.66.101 libx264
    Side data:
      cpb: bitrate max/min/avg: 0/0/2500000 buffer size: 0 vbv_delay: -1
Stream mapping:
  Stream #0:0 -> #0:0 (rawvideo (native) -> h264 (libx264))
Press [q] to stop, [?] for help
frame=    9 fps=0.0 q=0.0 size=       0kB time=00:00:00.00 bitrate=N/A speed=   0x    frame=   18 fps= 17 q=0.0 size=       0kB time=00:00:00.00 bitrate=N/A speed=   0x    frame=   27 fps= 15 q=0.0 size=       0kB time=00:00:00.00 bitrate=N/A speed=   0x    frame=   36 fps= 16 q=0.0 size=       0kB time=00:00:00.00 bitrate=N/A speed=   0x    frame=   37 fps=9.3 q=0.0 size=       0kB time=00:00:00.00 bitrate=N/A speed=   0x    frame=   43 fps=9.3 q=37.0 size=       1kB time=00:00:00.00 bitrate=5872.0kbits/s speed=0.000217x    frame=   45 fps=5.7 q=40.0 size=       1kB time=00:00:00.08 bitrate=  69.9kbits/s speed=0.0107x    frame=   46 fps=4.8 q=43.0 size=       1kB time=00:00:00.12 bitrate=  46.6kbits/s speed=0.013x    frame=   52 fps=5.1 q=55.0 size=       1kB time=00:00:00.37 bitrate=  15.6kbits/s speed=0.0368x    frame=   60 fps=5.6 q=56.0 size=       1kB time=00:00:00.70 bitrate=   8.3kbits/s speed=0.0659x    frame=   68 fps=6.0 q=56.0 size=       1kB time=00:00:01.04 bitrate=   5.6kbits/s speed=0.0925x    frame=   76 fps=6.5 q=56.0 size=       1kB time=00:00:01.37 bitrate=   4.3kbits/s speed=0.117x    frame=   83 fps=6.8 q=55.0 size=       1kB time=00:00:01.66 bitrate=   3.5kbits/s speed=0.136x    frame=   90 fps=7.0 q=54.0 size=       1kB time=00:00:01.95 bitrate=   3.0kbits/s speed=0.153x    frame=   97 fps=7.3 q=54.0 size=       1kB time=00:00:02.25 bitrate=   2.6kbits/s speed=0.169x    frame=  104 fps=7.5 q=54.0 size=       1kB time=00:00:02.54 bitrate=   2.3kbits/s speed=0.184x    frame=  111 fps=7.7 q=54.0 size=       1kB time=00:00:02.83 bitrate=   2.1kbits/s speed=0.197x    frame=  118 fps=7.9 q=54.0 size=       1kB time=00:00:03.12 bitrate=   1.9kbits/s speed=0.209x    frame=  125 fps=8.1 q=54.0 size=       1kB time=00:00:03.41 bitrate=   1.7kbits/s speed=0.221x    frame=  132 fps=8.2 q=51.0 size=       1kB time=00:00:03.70 bitrate=   1.6kbits/s speed=0.231x    frame=  140 fps=8.4 q=54.0 size=    1469kB time=00:00:04.04 bitrate=2976.7kbits/s speed=0.243x    frame=  147 fps=8.6 q=54.0 size=    1469kB time=00:00:04.33 bitrate=2776.9kbits/s speed=0.253x    frame=  156 fps=8.8 q=54.0 size=    1469kB time=00:00:04.70 bitrate=2555.7kbits/s speed=0.266x    frame=  163 fps=8.9 q=53.0 size=    1469kB time=00:00:05.00 bitrate=2406.5kbits/s speed=0.274x    frame=  170 fps=9.1 q=54.0 size=    1469kB time=00:00:05.29 bitrate=2273.8kbits/s speed=0.282x    frame=  177 fps=9.2 q=54.0 size=    1469kB time=00:00:05.58 bitrate=2155.3kbits/s speed=0.29x    frame=  184 fps=9.3 q=54.0 size=    1469kB time=00:00:05.87 bitrate=2048.2kbits/s speed=0.297x    frame=  191 fps=9.4 q=54.0 size=    1469kB time=00:00:06.16 bitrate=1951.2kbits/s speed=0.303x    frame=  201 fps=9.6 q=54.0 size=    2221kB time=00:00:06.58 bitrate=2763.8kbits/s speed=0.315x    frame=  208 fps=9.7 q=53.0 size=    2221kB time=00:00:06.87 bitrate=2646.5kbits/s speed=0.321x    frame=  216 fps=9.8 q=53.0 size=    2221kB time=00:00:07.20 bitrate=2524.2kbits/s speed=0.327x    frame=  221 fps=9.8 q=53.0 size=    2221kB time=00:00:07.41 bitrate=2453.1kbits/s speed=0.328x    frame=  228 fps=9.9 q=53.0 size=    2500kB time=00:00:07.70 bitrate=2656.8kbits/s speed=0.333x    frame=  236 fps= 10 q=53.0 size=    2500kB time=00:00:08.04 bitrate=2546.4kbits/s speed=0.34x    frame=  244 fps= 10 q=53.0 size=    2500kB time=00:00:08.37 bitrate=2445.2kbits/s speed=0.346x    frame=  252 fps= 10 q=53.0 size=    2500kB time=00:00:08.70 bitrate=2351.7kbits/s speed=0.352x    frame=  260 fps= 10 q=53.0 size=    2500kB time=00:00:09.04 bitrate=2264.8kbits/s speed=0.358x    frame=  268 fps= 10 q=53.0 size=    2500kB time=00:00:09.37 bitrate=2184.4kbits/s speed=0.363x    frame=  276 fps= 10 q=52.0 size=    2500kB time=00:00:09.70 bitrate=2109.5kbits/s speed=0.369x    frame=  285 fps= 11 q=52.0 size=    2500kB time=00:00:10.08 bitrate=2031.0kbits/s speed=0.375x    frame=  295 fps= 11 q=52.0 size=    2500kB time=00:00:10.50 bitrate=1950.4kbits/s speed=0.382x    frame=  302 fps= 11 q=52.0 size=    2500kB time=00:00:10.79 bitrate=1897.6kbits/s speed=0.38x    frame=  312 fps= 11 q=52.0 size=    3297kB time=00:00:11.20 bitrate=2409.6kbits/s speed=0.387x    frame=  321 fps= 11 q=51.0 size=    3297kB time=00:00:11.58 bitrate=2331.5kbits/s speed=0.393x    frame=  330 fps= 11 q=51.0 size=    3297kB time=00:00:11.95 bitrate=2258.4kbits/s speed=0.399x    frame=  342 fps= 11 q=51.0 size=    3297kB time=00:00:12.45 bitrate=2167.8kbits/s speed=0.409x    frame=  351 fps= 11 q=50.0 size=    3297kB time=00:00:12.83 bitrate=2104.5kbits/s speed=0.414x    frame=  363 fps= 11 q=49.0 size=    3297kB time=00:00:13.33 bitrate=2025.5kbits/s speed=0.422x    frame=  375 fps= 12 q=49.0 size=    3297kB time=00:00:13.83 bitrate=1952.3kbits/s speed=0.428x    frame=  385 fps= 12 q=48.0 size=    3297kB time=00:00:14.25 bitrate=1895.2kbits/s speed=0.434x    frame=  395 fps= 12 q=48.0 size=    3297kB time=00:00:14.66 bitrate=1841.3kbits/s speed=0.435x    frame=  407 fps= 12 q=47.0 size=    3904kB time=00:00:15.16 bitrate=2108.7kbits/s speed=0.442x    frame=  415 fps= 12 q=47.0 size=    3904kB time=00:00:15.50 bitrate=2063.4kbits/s speed=0.445x    frame=  423 fps= 12 q=47.0 size=    3904kB time=00:00:15.83 bitrate=2020.0kbits/s speed=0.448x    frame=  432 fps= 12 q=47.0 size=    3904kB time=00:00:16.20 bitrate=1973.3kbits/s speed=0.451x    frame=  441 fps= 12 q=47.0 size=    3904kB time=00:00:16.58 bitrate=1928.6kbits/s speed=0.455x    frame=  449 fps= 12 q=47.0 size=    3904kB time=00:00:16.91 bitrate=1890.6kbits/s speed=0.457x    frame=  459 fps= 12 q=47.0 size=    4555kB time=00:00:17.33 bitrate=2152.7kbits/s speed=0.461x    frame=  466 fps= 12 q=47.0 size=    4555kB time=00:00:17.62 bitrate=2117.1kbits/s speed=0.463x    frame=  474 fps= 12 q=47.0 size=    4555kB time=00:00:17.95 bitrate=2077.8kbits/s speed=0.465x    frame=  484 fps= 12 q=47.0 size=    4555kB time=00:00:18.37 bitrate=2030.7kbits/s speed=0.47x    frame=  493 fps= 12 q=46.0 size=    4555kB time=00:00:18.75 bitrate=1990.1kbits/s speed=0.472x    frame=  500 fps= 12 q=-1.0 Lsize=    5322kB time=00:00:20.70 bitrate=2105.1kbits/s speed=0.497x    
video:5317kB audio:0kB subtitle:0kB other streams:0kB global headers:0kB muxing overhead: 0.083769%
bench: utime=116.068s
bench: maxrss=1319852kB
[libx264 @ 0x305e120] frame I:8     Avg QP:41.56  size: 33504
[libx264 @ 0x305e120] frame P:269   Avg QP:47.31  size: 11793
[libx264 @ 0x305e120] frame B:223   Avg QP:45.17  size:  8985
[libx264 @ 0x305e120] consecutive B-frames: 37.0%  8.4%  6.6% 48.0%
[libx264 @ 0x305e120] mb I  I16..4: 19.3% 80.3%  0.4%
[libx264 @ 0x305e120] mb P  I16..4:  7.5% 29.2%  0.0%  P16..4:  5.8%  0.2%  0.1%  0.0%  0.0%    skip:57.1%
[libx264 @ 0x305e120] mb B  I16..4:  5.1%  3.1%  0.0%  B16..8:  9.4%  0.3%  0.0%  direct: 2.4%  skip:79.7%  L0:45.3% L1:53.3% BI: 1.4%
[libx264 @ 0x305e120] final ratefactor: 43.94
[libx264 @ 0x305e120] 8x8 transform intra:73.5% inter:97.3%
[libx264 @ 0x305e120] coded y,uvDC,uvAC intra: 4.7% 15.4% 0.1% inter: 0.7% 1.3% 0.0%
[libx264 @ 0x305e120] i16 v,h,dc,p: 46% 33%  8% 12%
[libx264 @ 0x305e120] i8 v,h,dc,ddl,ddr,vr,hd,vl,hu: 18%  7% 72%  1%  0%  0%  1%  0%  1%
[libx264 @ 0x305e120] i4 v,h,dc,ddl,ddr,vr,hd,vl,hu: 23% 25% 16%  8%  8%  5%  7%  3%  4%
[libx264 @ 0x305e120] i8c dc,h,v,p: 97%  2%  1%  0%
[libx264 @ 0x305e120] Weighted P-Frames: Y:0.7% UV:0.0%
[libx264 @ 0x305e120] ref P L0: 60.0% 40.0%
[libx264 @ 0x305e120] ref B L0: 78.6% 21.4%
[libx264 @ 0x305e120] ref B L1: 95.2%  4.8%
[libx264 @ 0x305e120] kb/s:2090.51
